REM MD5 ff1fb89ad365249f6375bb0ba81d4c09
FILE "Sony Music Entertainment - PlayStation Title Digest (Japan).bin" BINARY
  TRACK 01 MODE2/2352
    INDEX 01 00:00:00
  TRACK 02 AUDIO
    INDEX 00 18:43:38
    INDEX 01 18:46:38
  TRACK 03 AUDIO
    INDEX 00 20:59:51
    INDEX 01 21:02:51
  TRACK 04 AUDIO
    INDEX 00 23:14:69
    INDEX 01 23:18:69
  TRACK 05 AUDIO
    INDEX 00 26:35:25
    INDEX 01 26:40:25
REM LEADOUT 30:20:23
